/* XPM */
static char *bg1700560412[] = {
/* columns rows colors chars-per-pixel */
"48 48 128 2 ",
"   c #485F47",
".  c #475E46",
"X  c #465C44",
"o  c #435942",
"O  c #465D45",
"+  c #455B44",
"@  c #40543E",
"#  c #425640",
"$  c #445942",
"%  c #465C45",
"&  c #445A43",
"*  c #415740",
"=  c #435841",
"-  c #445A42",
";  c #425740",
":  c #41553F",
">  c #41563F",
",  c #455C44",
"<  c #455B43",
"1  c #475D46",
"2  c #415640",
"3  c #445B43",
"4  c #40553E",
"5  c #3F543E",
"6  c #3F533E",
"7  c #425841",
"8  c #475D45",
"9  c #3D513C",
"0  c #3F533D",
"q  c #3D503B",
"w  c #3B4E3A",
"e  c #3E523D",
"r  c #3E513C",
"t  c #3C4F3B",
"y  c #3C4F3A",
"u  c #384A37",
"i  c #394B38",
"p  c #3A4D39",
"a  c #3A4C39",
"s  c #435941",
"d  c #3E523C",
"f  c #394C38",
"g  c #344634",
"h  c #364836",
"j  c #374836",
"k  c #374936",
"l  c #334433",
"z  c #354634",
"x  c #354735",
"c  c #3B4E39",
"v  c #3C503B",
"b  c #364936",
"n  c #384B38",
"m  c #354635",
"M  c #344534",
"N  c #324232",
"B  c #394C39",
"V  c #364735",
"C  c #334333",
"Z  c #324332",
"A  c #314131",
"S  c #455A43",
"D  c #334332",
"F  c #303F30",
"G  c #314031",
"H  c #324131",
"J  c #2F3E2F",
"K  c #2F3F2F",
"L  c #485E46",
"P  c #304030",
"I  c #2E3D2E",
"U  c #2F3D2F",
"Y  c #384A38",
"T  c #435842",
"R  c #40553F",
"E  c #303E2F",
"W  c #2E3C2E",
"Q  c #303F2F",
"!  c #2D3B2D",
"~  c #2E3D2F",
"^  c #384B37",
"/  c #3C4E3A",
"(  c #344433",
")  c #374937",
"_  c #3C4F39",
"`  c #2F3D2E",
"'  c #2E3C2D",
"]  c #3B4D39",
"[  c #3F523D",
"{  c #2C392C",
"}  c #314231",
"|  c #2D3C2D",
" . c #344533",
".. c #2B382B",
"X. c #2D3A2D",
"o. c #2D3A2C",
"O. c #2C3A2C",
"+. c #334232",
"@. c #2B372B",
"#. c #324231",
"$. c #3D503C",
"%. c #314030",
"&. c #324132",
"*. c #2B392C",
"=. c #425741",
"-. c #2D3C2E",
";. c #374A37",
":. c #2C3A2D",
">. c #364736",
",. c #485E47",
"<. c #425840",
"1. c #40563F",
"2. c #364835",
"3. c #3E533D",
"4. c #3A4D3A",
"5. c #41573F",
"6. c #465D46",
"7. c #2E3C2F",
"8. c #2E3B2E",
"9. c #2D3B2E",
"0. c #2D3A2E",
"q. c #2C392D",
"w. c #2B382C",
"e. c #232D24",
"r. c #232D25",
"t. c #242D25",
"y. c #242E25",
"u. c white",
/* pixels */
"                                                                                                ",
"                                                                                                ",
"                                                                                                ",
"                                .                       X o O       O .                         ",
"                              . O   . X .   . . . X .   + @ # .   . $ .                         ",
"                            . % O . & * & O o = - ; & . O : > - . , @ %                         ",
"                . < 1 O . 1 < - X $ ; 2 ; 3 ; 4 > 4 5 6 ; ; > ; ; ; 5 7 8 . %                   ",
"                X = % X < - - + > > @ @ 9 5 = > 0 q q 9 w 0 9 e r @ @ e % < .                   ",
"                + = - ; 2 > : 7 t y t u i r 5 q p u p p a p i w t @ 6 6 < X   .                 ",
"        X X     , s o 9 y d d 9 u i f g h i j u k l z x f a f c y q y 0 7 $ < ,                 ",
"        O o +   X ; = 4 v w q w b n k l m k M h m N l l g h h f B p y q d > & .                 ",
"          8 < X , ; * 4 0 y u V x m l C z l l x M N Z N A Z M u n c y q d 6 S   , <             ",
"              % = * 5 e f i h D N N A A F G N D N N A H H A M u u p y q t d ; < $ &             ",
"            . < > 0 y B m C C A G A A A G J J F K G N N N H N V u u c p w d @ > ; % . X L       ",
"        8 3 ; 2 @ t i f V D G G P P P P F J I U J J P J F N D h Y x f w w d r T < X $ <         ",
"        8 < ; R @ v i u x D G F F E W W I I I W W W W I J G l k k h i c c 9 5 X 1 X $ .         ",
"      1 .   X 4 d v h l Z A Q I I W ! W J ~ W ! ! J ~ K K P P A z x ^ w i / 9 ; = $ %           ",
"      % - & 2 r d d f ( N F J I ! U J I U U I W W U I J F F F K N l g ) y _ q 0 @ ; & X S & X   ",
"        X : e t 9 w n ( F J ` W W J ' ' J J J J A J ! W J F C A P N ( V / ] w [ > > & . 8 + %   ",
"          & > v q i u N J I ! ! W ! { I J F K F } P W ! U F N A H N ( ( h i t @ > ; $ 1         ",
"    . O & & + 5 u h l F F | { ! ! { ` N Z N F ! ! J A J P N F G  .( D l k u 9 0 4 = = s .       ",
"    1 % = R = 5 m z N Z P ! ..X.o.O.` J A D I o.! J N A A N P D ( D Z l z V w 5 R ; S ; <       ",
"        < > > 0 k h ( +.J O.@.....{ ! ! I F W W U F F A Z ( D A #.A A N C l i t 9 > 1 < -       ",
"          & 0 t f x M N J ! { { ..O.J J ~ W ! W J P F G N m g A P N A A N ) t $.> 7 < . O       ",
"          8 2 t f h N U ! ! X.! O.o.I J I ! X.I J F P J F l M G N l D Z l e @ 0 & O +           ",
"        O , 7 w k M #.W ! W ! W X.{ W J I ! ! I P G %.F A C N A N C M H D w d 6 -               ",
"      . < & $ t a x C %.J ! W W ! X.I I | X.J J %.N N Z +.Z N C N N l l h u u 6 % . L           ",
"        X - = 9 p i z A K I ' W I ! W I I ! J G K A ( M +.Z Z C A F N M k f p 7 X $ X           ",
"          % o 0 y B h N F J I I J I | ! I ! U J I I C ( &.A A G F A l N M i d ; = S L           ",
"            O s 0 f x l N P P F K W O.{ X.{ U I J F F G %.G G F F Z M M h $.: $ = 1             ",
"            1 < R p f f h N N A J O.......*.U J ~ J J P H A A A G P P l k v 4 @ =.8             ",
"        O - = - 2 q 9 i M l N J I | -.W W W | I I W A Z N N A A G G N M x w 0 4 = + < - < .     ",
"        8 X .   X 0 9 h g V N ~ W I I J I W | W J J P G G A #.P F Z M ;.u p 0 : < . 8 + & O     ",
"            8 8 X @ e i k u h A J I I ! ! -.! | U Q A H P P A J A m h i w a q 4 ; O             ",
"            % < = ; 4 t a p n l N P J J J W :.! Q P F P N H N %.C x j i y r r 4 > &             ",
"            . . & ; > d w c x l M M P F G P I J N N %.H x M D m >.M z u t d 0 R s = X           ",
"          ,.S - < - * @ 5 d ] u u g N N A H &.A N N G C x z M ) a i Y p w 0 4 : 7 = $ .         ",
"            X ; * <.* 1.5 9 t w n V M N C Z N Z N l C C 2.k x k / d t 3.9 2 $ O . & $ L         ",
"            1 S - 7 ; > 0 d 0 9 q p h h n x x z  .h h V ) f k i t e d 5 =.o =..     .           ",
"                . < 7 7 @ @ 5 0 [ r w 4.q f u i u w p ] a v d 9 9 0 0 [ ; O 2 o                 ",
"                X $ - - 4 @ R @ 6 6 9 r 0 9 t w y q 9 0 9 r : 2 ; $ 4 @ =   X ,                 ",
"              8 $ 7 o s > = s 5 0 e 6 > o @ 9 : 0 e d R R 4 0 > 5.o & s -                       ",
"              . X 8 ,.1 - - S * 4 # 2 = & = - ; q q > ; * o = % s 7 3 < +                       ",
". . . . . . . 1 1 . . O o + X o ; =.= 7 7 < + : 9 : 7 2 2 $ & 1 % + & % O O O 6.6.O O 6.1 1 O 1 ",
"7.7.W 8.W W 8.9.8.8.8.0.X.8.8.X.q.{ X.q.q.0.0.w...{ { { { { q.X.:.q.q.X.X.q.q.:.q.q.q.X.X.X.q.X.",
"e.e.e.e.e.e.e.e.e.e.e.r.r.e.e.r.t.t.r.t.t.r.r.t.t.t.t.t.t.t.t.r.r.t.t.r.r.r.r.r.r.r.t.r.r.r.r.r.",
"y.y.y.y.y.y.y.y.y.y.y.y.y.y.y.y.y.y.y.y.y.y.y.y.y.y.y.y.y.y.y.y.y.y.y.y.y.y.y.y.y.y.y.y.y.y.y.y.",
"y.y.y.y.y.y.y.y.y.y.y.y.y.y.y.y.y.y.y.y.y.y.y.y.y.y.y.y.y.y.y.y.y.y.y.y.y.y.y.y.y.y.y.y.y.y.y.y."
};
