/* XPM */
static char *bg_wall1700560411[] = {
/* columns rows colors chars-per-pixel */
"48 48 84 1 ",
"  c #3B413C",
". c #3B403C",
"X c #3B413D",
"o c #3C423D",
"O c #3C433E",
"+ c #3C423E",
"@ c #3D433E",
"# c #3D443F",
"$ c #3E4540",
"% c #404641",
"& c #424843",
"* c #414742",
"= c #424743",
"- c #3F4540",
"; c #3E443F",
": c #3C413D",
"> c #3A403C",
", c #404642",
"< c #3F4641",
"1 c #414642",
"2 c #3E4440",
"3 c #3D433F",
"4 c #3F4541",
"5 c #404742",
"6 c #393E3A",
"7 c #3A3F3B",
"8 c #373D38",
"9 c #383D39",
"0 c #383E39",
"q c #363C37",
"w c #393F3B",
"e c #393F3A",
"r c #3D423E",
"t c #383E3A",
"y c #3A403B",
"u c #373C38",
"i c #383D38",
"p c #363B37",
"a c #393E39",
"s c #353A36",
"d c #343935",
"f c #353B37",
"g c #333834",
"h c #333835",
"j c #353B36",
"k c #343936",
"l c #323834",
"z c #323733",
"x c #323632",
"c c #333934",
"v c #333935",
"b c #363C38",
"n c #343A36",
"m c #373C37",
"M c #343A35",
"N c #313632",
"B c #333733",
"V c #373D39",
"C c #313532",
"Z c #313531",
"A c #343834",
"S c #303531",
"D c #303430",
"F c #303431",
"G c #333734",
"H c #323633",
"J c #2F3330",
"K c #2E322F",
"L c #2F322F",
"P c #343934",
"I c #323734",
"U c #2F3430",
"Y c #2F332F",
"T c #434944",
"R c #434844",
"E c #3E433F",
"W c #404541",
"Q c #3F4440",
"! c #424944",
"~ c #444945",
"^ c #444A45",
"/ c #323532",
"( c #2A2D2A",
") c white",
/* pixels */
" ....XX ..oOO+@#$%&**=*&&%$$-*&**&&;$#+++::++XXX",
"......  XX#+.>X;--,<%*1*&*%-#-=&*%<22$O+OO#O++OO",
"...X  oO;@##+.o#$2$$%=*1,%$33$,,%%%<%%$$;#+:+3$#",
" X+XXo@#<2$3XX33@##$<%%<$%$Oo@-%,45**44-$#+ @;$#",
"+@+O@##;*;++.XO+3#;#332$$4-#o+-*=<-,%-4##O:+3#2#",
"o@:o#;#--XXXXOO+3#-@+#;;;<<$3O;*=*-,*2##$3@3;33#",
"o.X+o3@O.677XO#;$$<$2#$$2<-#O++%**%%<$;2---#3+o@",
"@> .o++X766897.X3+o:+o@oo@+O:oO#;<<<$22$$$2#@X.X",
"@oXXX7..609q896w776eXo.7.:++.o3-+r@+O$##2@@X+:oo",
"@+X.e9676999999669tw.Xw7.++..+:+.776>@:3;:.7y+#3",
".>>66ui9776966966677 .w.+3O.7o.67667>+X++X.6eX#<",
".6779uup9669y.y76a996e67.X>6yo.6we6yX++:+:X>w.@;",
"76w7699spuup677apspu98q999uueX6966967XX.X+O:.yX3",
"@XX7669pqsdst66fggspuuu999pp9:>666696. .Xo3+X7.@",
"-@X6uusppsgdt0fgghpu9uua68jp6X7667>7>XOX y3$3  :",
"-@:.99usdddgsqsdspu69iiuusdsu69a7.>6yy ..yo;X.+#",
"+X.>6ufddkdlddspey6upqpppdddsuu96.7677.y7.o+>X##",
".660uu8ssdzxgdpu7iufsfddcggcvppp866677y667:@+##-",
"t96ub9ukdzgzzgdspsdzdpnggdssdspsua9677e66.:+++25",
"699pumsssdpzzgdspuudnssMsupskspsb90600977 ##;#;$",
"6uupdgspsgsNBdd97906tupddqssddpp6679990y>X##@#$@",
"77VupssdgCzZApsuesdnsgdddsddgdspe7769u677++X@#++",
"X6pu79pgNSSDg6ppugzxgzgcdggggdsp967996667Oo3;@XX",
"X wVw7szCCSFZGzzdzHzhgdgggdskkp6a6696..7.oX3;+:X",
":o.u6VusxSFZZSzssznuueuvggppsj8766w9967>7.X+##32",
">678689pzNCDJKH99zs9bppzgdupsupu966uuu6yXX.++%<%",
"upsuqdsgNNzHDLJHzxHSgGzNNgsupuj9V66u9u96++7X+%**",
"uu96udsPzzNCNNCFFCSFzggzgddpppsps9609967o+:+3--<",
"9duugdpszNZJzzNNgGCzdsssdIgggdspsu999977..3$;$@#",
"pdppAuusAzSFdgxCzzNgHHpssgdddsp6uuq896767.o#-%;$",
"up9pppdzzNDSgSUJDFNzzuXpsppdsp97099996707. O#%%<",
"y6y6tpdsdNCHCJYJCCNZxb9dddpupp97.77.6776. X3@$%<",
"7uVuuszdsNzNFDKJNNCNddsgdnb99q67.7:3 .7>33+O;$$,",
"9spp9uggddgSSFFFNNggzggggn998977X.6.77.X$-#-<-*&",
"9suq99NFzzNFSSSJSNzNFSNNzs9777 >.+.XXXo34$<=4-&T",
"y833ebNCdpHCFFNNgzNNCNNNguw@2;+-+oo;@;;-%$%&=*,R",
"76; sps9p>zNZZzpACNNzzzHp>o@E .-@;-,$%-<%<*&&&&T",
"W-*%;Q%%%*;@rrEEr@Er@E;E-W&&T**&&&TT&TTTT!T~T^^^",
"////xx//x/xxxxxxxxxxxxxxxxxxxxxxxxxxxxxxxxxxxxxx",
"((((((((((((((((((((((((((((((((((((((((((((((((",
"((((((((((((((((((((((((((((((((((((((((((((((((",
"((((((((((((((((((((((((((((((((((((((((((((((((",
"((((((((((((((((((((((((((((((((((((((((((((((((",
"((((((((((((((((((((((((((((((((((((((((((((((((",
"((((((((((((((((((((((((((((((((((((((((((((((((",
"((((((((((((((((((((((((((((((((((((((((((((((((",
"((((((((((((((((((((((((((((((((((((((((((((((((",
"(((((((((((((((((((((((((((((((((((((((((((((((("
};
