/* XPM */
static char *cat_L_11700560412[] = {
/* columns rows colors chars-per-pixel */
"48 48 185 2 ",
"   c None",
".  c #2E2017",
"X  c #2F2017",
"o  c #39261A",
"O  c #3D291C",
"+  c #422C1D",
"@  c #462F1F",
"#  c #48301F",
"$  c #4B3220",
"%  c #4C3220",
"&  c #4D3321",
"*  c #4E3421",
"=  c #523723",
"-  c #533723",
";  c #543823",
":  c #553824",
">  c #593A25",
",  c #593B25",
"<  c #5B3C26",
"1  c #5C3C26",
"2  c #5C3D26",
"3  c #5D3D26",
"4  c #4D4520",
"5  c #614028",
"6  c #634128",
"7  c #644229",
"8  c #654229",
"9  c #664329",
"0  c #674329",
"q  c #68442A",
"w  c #69452A",
"e  c #6B472B",
"r  c #6C472B",
"t  c #6E482C",
"y  c #6F492C",
"u  c #6D4D2C",
"i  c #70492D",
"p  c #714A2D",
"a  c #734B2E",
"s  c #744C2E",
"d  c #774D2F",
"f  c #774E2F",
"g  c #605626",
"h  c #6A5F29",
"j  c #7A4F30",
"k  c #7C5131",
"l  c #7D5131",
"z  c #7F5332",
"x  c #7F5432",
"c  c #7F7330",
"v  c #805332",
"b  c #815432",
"n  c #825533",
"m  c #835533",
"M  c #845633",
"N  c #845634",
"B  c #855734",
"V  c #865734",
"C  c #875835",
"Z  c #855E34",
"A  c #885835",
"S  c #895935",
"D  c #8C5B36",
"F  c #8D5B36",
"G  c #8F5D37",
"H  c #925E38",
"J  c #925F38",
"K  c #935F38",
"L  c #936138",
"P  c #956139",
"I  c #96613A",
"U  c #97623A",
"Y  c #99633B",
"T  c #9A633B",
"R  c #9A643B",
"E  c #9C653C",
"W  c #9E653C",
"Q  c #9E663C",
"!  c #8D7235",
"~  c #8D7F35",
"^  c #987739",
"/  c #A0683D",
"(  c #A1683D",
")  c #A3693E",
"_  c #A36A3E",
"`  c #A46A3E",
"'  c #A56B3E",
"]  c #A66B3F",
"[  c #A76C3F",
"{  c #A27A3D",
"}  c #A57D3E",
"|  c #A97D3F",
" . c #AB6E40",
".. c #AB6F41",
"X. c #AC6F41",
"o. c #AD7C41",
"O. c #B07142",
"+. c #B17242",
"@. c #B17243",
"#. c #B17343",
"$. c #B47443",
"%. c #B57444",
"&. c #B57544",
"*. c #B67544",
"=. c #B77645",
"-. c #B87745",
";. c #B27B43",
":. c #B37B43",
">. c #B47A44",
",. c #B67A44",
"<. c #B77D44",
"1. c #BA7846",
"2. c #BB7846",
"3. c #BB7946",
"4. c #BC7946",
"5. c #BF7B47",
"6. c #BE7D47",
"7. c #C07C48",
"8. c #C17C48",
"9. c #C27C48",
"0. c #C27D48",
"q. c #C27D49",
"w. c #C17E48",
"e. c #C17F48",
"r. c #C37E49",
"t. c #C47E49",
"y. c #C57F49",
"u. c #C57F4A",
"i. c #928436",
"p. c #A1863C",
"a. c #A98A3E",
"s. c #A0913B",
"d. c #AC9A3F",
"f. c #B48043",
"g. c #AF9141",
"h. c #B59B42",
"j. c #B69A42",
"k. c #B1A040",
"l. c #BBA444",
"z. c #BDAA44",
"x. c #C7804A",
"c. c #C8814A",
"v. c #C9814B",
"b. c #C9824B",
"n. c #CA824B",
"m. c #CB834B",
"M. c #CB824C",
"N. c #CC834C",
"B. c #CC844C",
"V. c #CD844C",
"C. c #CD854C",
"Z. c #CE854D",
"A. c #CF854D",
"S. c #D0864D",
"D. c #D1874E",
"F. c #D2874E",
"G. c #D3884E",
"H. c #D4884E",
"J. c #D4884F",
"K. c #D4894F",
"L. c #D5894F",
"P. c #D68A4F",
"I. c #D78A4F",
"U. c #D78B50",
"Y. c #D88B50",
"T. c #D98B50",
"R. c #D98C50",
"E. c #DA8C51",
"W. c #DA8D51",
"Q. c #DB8D51",
"!. c #DC8D51",
"~. c #DC8E51",
"^. c #DC8E52",
"/. c #DD8E52",
"(. c #DE8F52",
"). c #DF8F52",
"_. c #E09053",
"`. c #C1AF45",
"'. c #C5AD47",
"]. c #CEB849",
"[. c #D2BE4B",
"{. c #D4C04B",
"}. c #D5C24C",
"|. c #E6D151",
" X c #F7E156",
/* pixels */
"                                                                                                ",
"                                                                                                ",
"                                                                                                ",
"                                                                                                ",
"                                                                                                ",
"                                                                                                ",
"                                                                                                ",
"                                                                                                ",
"                                                                                                ",
"                                                                                                ",
"                                                                                                ",
"                                                        w w -                                   ",
"                                                    v u.L.L.V.[ 8                               ",
"                                                  p S.~.~.7.X.3.M.s                             ",
"                                                  @.~.L.K       v &.=                           ",
"                                                  Q 3.N           S R                           ",
"                                                                  & @.8                         ",
"                                                                     .S                         ",
"                                        -                           (  .                        ",
"                      t  .$             ` 8                         @.%.                        ",
"                      t U. .          b R.z                     1 F U.5.                        ",
"                      z ~.R.z         3._.Q               p R -.V./.~.A.6                       ",
"                      Z S./.M.e , 8 S M.G.3.        q Y 7.U.~.~.~.R.~.R.S                       ",
"                    [.d.u M.~.S.M.7.b ! ^ 3.<   & Q A././.~.R.~./.R.~./.&.                      ",
"                    {.`.g o.T./.J.{ 4 i.|.^ a e 7./.~.R./.R./.R.R./.R./.J.8                     ",
"                  - p.{.c h.@.&.>.].h i. Xg.7.U./.R./.R.R./.R././.R./.R.~.j                     ",
"                   .6.g.z.l.L Q <.'.s.k.j.-./.~.~./.R./.R.~./.R.R./.R././.K                     ",
"                  s U.V.;.;.G.R.U.6.<.o.7.!.R./.~.R./.R./.~./././.R./.R./.Y                     ",
"                    s 5.T._./.~.R./.~.~.R.R.^.R.R.~.~.~.J.M.7.x.T.R.~.~.~.P                     ",
"                      $ p S K 7.~.~.~.~.J.5.R./.R.T.-.N < t ....@.~.R.~._.K                     ",
"                            & 7./.R.T./.7. .^.^.7.s       + ( M.Y u./.R.R.S                     ",
"                              N T./.~.~.M. .R.T. .X           , 6 N S.R.U.p                     ",
"                                M u.L.~.I.K S._.4.O               X P _.&.                      ",
"                                  # $.~.c.; b ..z                 t 4.#.3                       ",
"                                  6 V.R.A                         p w                           ",
"                                  w ` P                                                         ",
"                                  o #                                                           ",
"                                                                                                ",
"                                                                                                ",
"                                                                                                ",
"                                                                                                ",
"                                                                                                ",
"                                                                                                ",
"                                                                                                ",
"                                                                                                ",
"                                                                                                ",
"                                                                                                ",
"                                                                                                "
};
