/* XPM */
static char *cat_R_11700560412[] = {
/* columns rows colors chars-per-pixel */
"48 48 192 2 ",
"   c None",
".  c #37261A",
"X  c #39271A",
"o  c #3C281B",
"O  c #3F2A1C",
"+  c #3E381B",
"@  c #412C1D",
"#  c #432D1D",
"$  c #432D1E",
"%  c #48301F",
"&  c #4A3120",
"*  c #4D3321",
"=  c #4E3421",
"-  c #4E3422",
";  c #4F3422",
":  c #533723",
">  c #543823",
",  c #563924",
"<  c #573924",
"1  c #593B25",
"2  c #5A3B25",
"3  c #5A3C25",
"4  c #5B3C26",
"5  c #5C3D26",
"6  c #5E3E27",
"7  c #5F3F27",
"8  c #4E4621",
"9  c #574C24",
"0  c #614028",
"q  c #614128",
"w  c #624028",
"e  c #634128",
"r  c #644229",
"t  c #654229",
"y  c #664329",
"u  c #66432A",
"i  c #67442A",
"p  c #68442A",
"a  c #6A462B",
"s  c #6B462B",
"d  c #6C472C",
"f  c #70492D",
"g  c #714A2D",
"h  c #724A2D",
"j  c #754C2E",
"k  c #764D2E",
"l  c #764D2F",
"z  c #774E2F",
"x  c #784E2F",
"c  c #76502E",
"v  c #794F30",
"b  c #7C5131",
"n  c #7D5131",
"m  c #7D5231",
"M  c #7E5231",
"N  c #7F5332",
"B  c #7E5631",
"V  c #6D612B",
"C  c #7F7331",
"Z  c #815433",
"A  c #825533",
"S  c #845633",
"D  c #865734",
"F  c #875834",
"G  c #895935",
"H  c #8A5A36",
"J  c #8C5B36",
"K  c #8E5C37",
"L  c #8F5C37",
"P  c #8F5D37",
"I  c #915E38",
"U  c #925E38",
"Y  c #935F38",
"T  c #946039",
"R  c #956139",
"E  c #96613A",
"W  c #97623A",
"Q  c #966739",
"!  c #99633A",
"~  c #9A643B",
"^  c #9C653B",
"/  c #9C653C",
"(  c #9E663C",
")  c #8B7E34",
"_  c #9A743A",
"`  c #967C38",
"'  c #9D7D3B",
"]  c #A0683D",
"[  c #A1683D",
"{  c #A2693E",
"}  c #A3693E",
"|  c #A56B3F",
" . c #A66C3F",
".. c #A76C3F",
"X. c #A86C3F",
"o. c #A0723C",
"O. c #A37D3D",
"+. c #A96D40",
"@. c #AA6D40",
"#. c #AA6E40",
"$. c #AB6E40",
"%. c #AC6F41",
"&. c #AD7041",
"*. c #AE7042",
"=. c #AF7142",
"-. c #AE7B41",
";. c #AE7C41",
":. c #B07242",
">. c #B17242",
",. c #B27243",
"<. c #B37343",
"1. c #B47444",
"2. c #B57544",
"3. c #B77645",
"4. c #B97745",
"5. c #BA7746",
"6. c #B17B42",
"7. c #B37D42",
"8. c #B47B44",
"9. c #B67B44",
"0. c #B97845",
"q. c #BA7846",
"w. c #BC7946",
"e. c #BD7A47",
"r. c #BE7A47",
"t. c #BD7F47",
"y. c #C07C48",
"u. c #C17D48",
"i. c #C07E48",
"p. c #C47E49",
"a. c #C47F49",
"s. c #C57F49",
"d. c #C57F4A",
"f. c #C67F4A",
"g. c #918036",
"h. c #938537",
"j. c #AC8D3F",
"k. c #A0913B",
"l. c #B18042",
"z. c #B28F41",
"x. c #B09540",
"c. c #B29841",
"v. c #B59C42",
"b. c #B3A241",
"n. c #B6A642",
"m. c #BFAD45",
"M. c #C7804A",
"N. c #C7814A",
"B. c #C7824A",
"V. c #C8804A",
"C. c #C8814A",
"Z. c #C8814B",
"A. c #C9814B",
"S. c #CA824B",
"D. c #CB834B",
"F. c #CC834C",
"G. c #CD834C",
"H. c #CD844C",
"J. c #D0864D",
"K. c #D1874E",
"L. c #D3884E",
"P. c #D4884E",
"I. c #D4884F",
"U. c #D4894F",
"Y. c #D5894F",
"T. c #D6894F",
"R. c #D68A4F",
"E. c #D78A50",
"W. c #D78B50",
"Q. c #D88B50",
"!. c #D98C50",
"~. c #DA8C50",
"^. c #DA8C51",
"/. c #DA8D51",
"(. c #DB8D51",
"). c #DC8D51",
"_. c #DC8E51",
"`. c #DC8E52",
"'. c #DD8E52",
"]. c #DD8F52",
"[. c #DE8F52",
"{. c #DF8F52",
"}. c #DF9053",
"|. c #E09053",
" X c #C2B046",
".X c #C3B046",
"XX c #CBB549",
"oX c #D3BF4B",
"OX c #D7C34C",
"+X c #DDC84E",
"@X c #E6D151",
"#X c #EED853",
/* pixels */
"                                                                                                ",
"                                                                                                ",
"                                                                                                ",
"                                                                                                ",
"                                                                                                ",
"                                                                                                ",
"                                                                                                ",
"                                                                                                ",
"                                                                                                ",
"                                                                                                ",
"                                                                                                ",
"                                  * u d 7                                                       ",
"                              2 ^ A.U.U.A.P                                                     ",
"                            7 u.u.#.q.Q.[.Q.D                                                   ",
"                          O #.I       S F.}.p.=                                                 ",
"                          F ^           l 1.%.                                                  ",
"                          <.u                                                                   ",
"                        l 1.                                                                    ",
"                        Y 4.                          >                                         ",
"                        ( p.$                       = X.,             ^ A                       ",
"                        *._.^ 9                     p U.W           Y ^.F                       ",
"                        w.}.[.L.w.[ l :             G [.A.7       r L.[.W                       ",
"                      h L.!.!.[.[.}.U.p.[ h          .U.F.~ e 7 4 q.}.U.Q 9                     ",
"                      [ }.[.^.!.^.^.[.[.[.U.#.4   # <._ ` c q.F.H.[.L.B g.+XC                   ",
"                    = M.^.^.}.!.[.^.^.!.!.[.}.A.Z w o.OXn.# h.J.[.[.7.V k.@X                    ",
"                    r L.^.}.^.!.!.!.[.[.^.!.!.[.!.f.O.#Xb.8 oX6.4.<.z.)  Xv.e                   ",
"                    l !.^.!.!.!.^.[.!.^.[.!.[.^.^.[.t.j.m.h.XXl.X.P j. Xx.8.q.$                 ",
"                    A ^.^.}.^.}.!.[.[.!.[.^.^.^.[.^.).f.;.7.t.U.}.!.9.6.A.^.J                   ",
"                    M ^.^.^.^.^.A.i.M.L.^.[.^.^.[.^.^.[.^.[.[.!.^.[.{.[.M.F                     ",
"                    b ^.[.^.[.q.X.<.M > M *.U.[.!.!.M.H.[.^.^.^.A.W J l =                       ",
"                    h U.^.}.H.! p.<.:       a <.}.[.<.1.}.!.[.!.J.e                             ",
"                    4 A.!.R.Y u 2             J !.^.<.w.[._.!.}.!                               ",
"                      [ |.<..                 | |.^.W A.[.!.A.W X                               ",
"                      = [ p.M                 a X.I & 4.|.p.>                                   ",
"                          u h                         h U.U.x                                   ",
"                                                        G X.l                                   ",
"                                                          % o                                   ",
"                                                                                                ",
"                                                                                                ",
"                                                                                                ",
"                                                                                                ",
"                                                                                                ",
"                                                                                                ",
"                                                                                                ",
"                                                                                                ",
"                                                                                                ",
"                                                                                                ",
"                                                                                                "
};
