/* XPM */
static char *cat_R_21700560412[] = {
/* columns rows colors chars-per-pixel */
"48 48 195 2 ",
"   c None",
".  c #2D1F16",
"X  c #2F2017",
"o  c #312117",
"O  c #322318",
"+  c #352419",
"@  c #362519",
"#  c #39261A",
"$  c #39271A",
"%  c #3C281B",
"&  c #363019",
"*  c #402B1D",
"=  c #412C1D",
"-  c #422C1D",
";  c #422D1E",
":  c #432D1E",
">  c #452E1E",
",  c #462F1F",
"<  c #48301F",
"1  c #493120",
"2  c #4A3120",
"3  c #4B3120",
"4  c #4B3220",
"5  c #4C3321",
"6  c #4D3321",
"7  c #503522",
"8  c #513622",
"9  c #523723",
"0  c #543823",
"q  c #563924",
"w  c #573924",
"e  c #583A24",
"r  c #5A3B25",
"t  c #583D25",
"y  c #5A3C26",
"u  c #5B3C26",
"i  c #5C3D26",
"p  c #5F3F27",
"a  c #603F27",
"s  c #4C4420",
"d  c #554923",
"f  c #614028",
"g  c #654229",
"h  c #67432A",
"j  c #67442A",
"k  c #68452A",
"l  c #69452A",
"z  c #69452B",
"x  c #6A462B",
"c  c #6B462B",
"v  c #6D472C",
"b  c #6E482C",
"n  c #714A2D",
"m  c #724A2D",
"M  c #754D2F",
"N  c #764D2F",
"B  c #774E2F",
"V  c #784E2F",
"C  c #784E30",
"Z  c #7B5030",
"A  c #795230",
"S  c #7D5131",
"D  c #7F5332",
"F  c #6D622B",
"G  c #75672D",
"H  c #75682D",
"J  c #815432",
"K  c #825533",
"L  c #835533",
"P  c #845634",
"I  c #875834",
"U  c #875835",
"Y  c #885835",
"T  c #885935",
"R  c #8A5935",
"E  c #895936",
"W  c #8A5E35",
"Q  c #915E38",
"!  c #946039",
"~  c #956139",
"^  c #966239",
"/  c #98633A",
"(  c #99633B",
")  c #9A643B",
"_  c #9B643B",
"`  c #9C653C",
"'  c #9D663C",
"]  c #9E673C",
"[  c #9D6B3C",
"{  c #897C34",
"}  c #9A733A",
"|  c #9D793B",
" . c #A0673D",
".. c #A0683D",
"X. c #A2693D",
"o. c #A3693E",
"O. c #A46A3E",
"+. c #A56B3E",
"@. c #A76B3F",
"#. c #A66C3F",
"$. c #A76C3F",
"%. c #AB6F41",
"&. c #AC6F41",
"*. c #AD7041",
"=. c #AE7042",
"-. c #AF7142",
";. c #AA7A40",
":. c #AD7A41",
">. c #B17343",
",. c #B47444",
"<. c #B67544",
"1. c #B77644",
"2. c #B77645",
"3. c #B87645",
"4. c #B87745",
"5. c #BB7746",
"6. c #B27A43",
"7. c #B47C43",
"8. c #B47D43",
"9. c #B97845",
"0. c #BB7846",
"q. c #BB7946",
"w. c #BC7946",
"e. c #BE7A47",
"r. c #BE7B47",
"t. c #BF7B47",
"y. c #B97C45",
"u. c #BB7D46",
"i. c #BB7F46",
"p. c #C07C48",
"a. c #C17C48",
"s. c #C27D48",
"d. c #C47E49",
"f. c #C57F4A",
"g. c #9A8C39",
"h. c #A5893D",
"j. c #A5913D",
"k. c #AB9B3E",
"l. c #AB8040",
"z. c #AD8340",
"x. c #AD8D40",
"c. c #BC8046",
"v. c #AD9040",
"b. c #B59742",
"n. c #B29941",
"m. c #B49C42",
"M. c #C48049",
"N. c #C6804A",
"B. c #C7824A",
"V. c #C9814B",
"C. c #C9824B",
"Z. c #CA824B",
"A. c #CB834C",
"S. c #CC834C",
"D. c #CC844C",
"F. c #CE844C",
"G. c #CE854D",
"H. c #CF854D",
"J. c #CF864D",
"K. c #D0864D",
"L. c #D1874E",
"P. c #D2874E",
"I. c #D2884E",
"U. c #D3884E",
"Y. c #D4894F",
"T. c #D5894F",
"R. c #D6894F",
"E. c #D68A4F",
"W. c #D78A50",
"Q. c #D78B50",
"!. c #D88B50",
"~. c #D98B50",
"^. c #D98C50",
"/. c #DA8C50",
"(. c #DA8C51",
"). c #DB8D51",
"_. c #DC8D51",
"`. c #DC8E51",
"'. c #DD8E52",
"]. c #DD8F52",
"[. c #DE8F52",
"{. c #DF8F52",
"}. c #DF9052",
"|. c #E09053",
" X c #C0AE45",
".X c #C3AD46",
"XX c #C1B045",
"oX c #C4B247",
"OX c #C7B547",
"+X c #C9B448",
"@X c #CAB648",
"#X c #DBC74E",
"$X c #E5CF51",
"%X c #E8D252",
"&X c #ECD653",
/* pixels */
"                                                                                                ",
"                                                                                                ",
"                                                                                                ",
"                                                                                                ",
"                                                                                                ",
"                                                                                                ",
"                                                                                                ",
"                                                                                                ",
"                                                                                                ",
"                                                                                                ",
"                                                                                                ",
"                                = k B h =                                                       ",
"                              N p.Q.^.Y.9.L                                                     ",
"                            h K.!.d.d.!.}.^.B                                                   ",
"                          , 9.Z.m 2 2 m 9.|.#.                                                  ",
"                          U !.S         = J N                                                   ",
"                          >.-.                                                                  ",
"                        y d.C                                                                   ",
"                        a w.q                         8                                         ",
"                        z e.,                         _ p             i w                       ",
"                        Q !.&.! ! E v 1             = p.(           t a.E                       ",
"                      v K.'.'.'.`.`.Q.a.Q y         i K.Z.2       3 4.|._                       ",
"                    3 p.'.!.`.'.`.`.^.'.'.Z.S       J Q.H.` 2 O , @.`.^.[ d                     ",
"                    B ^.`.'.!.!.^.`.`.`.`.`.Q.P     ! z.h.A -.4.p.^.^.W j.#XH                   ",
"                    P ^.`.^._._.!.`.`.'.`.'.`.!.E 3 } $XOX& | Y.`.`.7.G k.%XF                   ",
"                    E `.`.`.`.!.'.'.!.!.!.!._.'.Y.5.;.&XXXs @X6.a.%.x.g..Xm.t                   ",
"                  y <.`.^.!.`._.`.!.'.`.'.`.`.!.`.`.d.b.oX{ .X6.<.P n.@Xv.y.9.3                 ",
"                O &.`.`.`.`.`.Y.Y.'.!.`.'.!.'.!.`.`.`.Z.:.;.i.Y.`.Q.c.c.H.Y.P                   ",
"                  4.`.`.`.`.W.%.S.'.`.`.!.'.`.`.'.!.!.`.`.`.`.`.^.`.'.Q.4.k                     ",
"                  ` p._ %.<. .w.a.w.!.'.`.`.!.'.`.`.'.`.`.^.`.`.Z._ E j %                       ",
"                  3 y   . ` P.!.z * P w.`.`._.`.!.'.!.'.`.!.`._.K.b                             ",
"                          m !.K.7     2 ` '.!.`.`.p.S.`.`._.`.`.o.                              ",
"                            ! p.J %     + <.`.`.!.%.Z.!.`.`.H._ ,                               ",
"                              = , #       P }.`.Q.` Q.!.S.! 8                                   ",
"                                          2 %.^.`. .a z 8                                       ",
"                                            # S -.o.+                                           ",
"                                                O 2 .                                           ",
"                                                                                                ",
"                                                                                                ",
"                                                                                                ",
"                                                                                                ",
"                                                                                                ",
"                                                                                                ",
"                                                                                                ",
"                                                                                                ",
"                                                                                                ",
"                                                                                                ",
"                                                                                                "
};
