/* XPM */
static char *cat_L21700560412[] = {
/* columns rows colors chars-per-pixel */
"48 48 200 2 ",
"   c None",
".  c #261B14",
"X  c #312217",
"o  c #342419",
"O  c #362519",
"+  c #37251A",
"@  c #3A271B",
"#  c #3E371C",
"$  c #412C1D",
"%  c #422C1D",
"&  c #432D1D",
"*  c #442D1E",
"=  c #442E1E",
"-  c #48301F",
";  c #493120",
":  c #4A3120",
">  c #4A3220",
",  c #4B3220",
"<  c #4C3221",
"1  c #4C3321",
"2  c #4D3321",
"3  c #4E3321",
"4  c #4E3421",
"5  c #4F3422",
"6  c #503522",
"7  c #513622",
"8  c #523623",
"9  c #533723",
"0  c #543823",
"q  c #563924",
"w  c #573A24",
"e  c #593A25",
"r  c #593B25",
"t  c #5A3B25",
"y  c #5A3C25",
"u  c #5B3C26",
"i  c #5F3F27",
"p  c #603F27",
"a  c #524822",
"s  c #614028",
"d  c #624028",
"f  c #634128",
"g  c #644229",
"h  c #664329",
"j  c #67432A",
"k  c #67442A",
"l  c #68442A",
"z  c #69452A",
"x  c #6A462B",
"c  c #6E482C",
"v  c #70492D",
"b  c #714A2D",
"n  c #724A2D",
"m  c #724B2D",
"M  c #734B2D",
"N  c #734B2E",
"B  c #744C2E",
"V  c #764D2F",
"C  c #635927",
"Z  c #7A5030",
"A  c #7D5131",
"S  c #7F5332",
"D  c #7F5432",
"F  c #7C5831",
"G  c #6B602A",
"H  c #805332",
"J  c #845634",
"K  c #855634",
"L  c #855734",
"P  c #875834",
"I  c #875C34",
"U  c #885935",
"Y  c #895935",
"T  c #8A5A35",
"R  c #8A5A36",
"E  c #8B5A36",
"W  c #8C5B36",
"Q  c #8D5C37",
"!  c #8E5C37",
"~  c #935F38",
"^  c #8A6135",
"/  c #936039",
"(  c #946039",
")  c #97623A",
"_  c #98633A",
"`  c #9B643B",
"'  c #9E663C",
"]  c #9F673D",
"[  c #997E3A",
"{  c #A0673D",
"}  c #A1683D",
"|  c #A2693D",
" . c #A36A3E",
".. c #A36B3E",
"X. c #A56A3E",
"o. c #A56B3E",
"O. c #A96D40",
"+. c #AA6D40",
"@. c #AC6F41",
"#. c #AF7142",
"$. c #AA7940",
"%. c #AA7B40",
"&. c #AC7A41",
"*. c #AC7F40",
"=. c #B07242",
"-. c #B37444",
";. c #B57544",
":. c #B67544",
">. c #B67644",
",. c #B77645",
"<. c #B87645",
"1. c #B97745",
"2. c #BA7845",
"3. c #B97846",
"4. c #BA7846",
"5. c #BB7946",
"6. c #BB7B46",
"7. c #BC7946",
"8. c #BD7A47",
"9. c #BE7A47",
"0. c #BE7B47",
"q. c #BA7C46",
"w. c #BC7D46",
"e. c #BD7F46",
"r. c #BF7E47",
"t. c #C17D48",
"y. c #C27D48",
"u. c #C37D49",
"i. c #C07F48",
"p. c #C27F48",
"a. c #C37E49",
"s. c #C47E49",
"d. c #C57F4A",
"f. c #C67F4A",
"g. c #8E8135",
"h. c #9F863B",
"j. c #968838",
"k. c #9D8D3A",
"l. c #A7843E",
"z. c #AA893F",
"x. c #A4953C",
"c. c #AE8940",
"v. c #AF8C41",
"b. c #BA8046",
"n. c #B59B42",
"m. c #B3A341",
"M. c #BDA444",
"N. c #BFA545",
"B. c #BCA844",
"V. c #C6804A",
"C. c #C7804A",
"Z. c #C7814A",
"A. c #C8814A",
"S. c #C8814B",
"D. c #C9814B",
"F. c #CA824B",
"G. c #CC834C",
"H. c #CD844C",
"J. c #CE854C",
"K. c #CE854D",
"L. c #CF854D",
"P. c #CF864D",
"I. c #D0864D",
"U. c #D1864D",
"Y. c #D1874D",
"T. c #D1874E",
"R. c #D2874E",
"E. c #D3884E",
"W. c #D4884E",
"Q. c #D4884F",
"!. c #D5894F",
"~. c #D6894F",
"^. c #D68A4F",
"/. c #D78A4F",
"(. c #D78B50",
"). c #D88B50",
"_. c #D98B50",
"`. c #D98C50",
"'. c #DA8C51",
"]. c #DB8C51",
"[. c #DB8D51",
"{. c #DC8D51",
"}. c #DC8E51",
"|. c #DD8E51",
" X c #DD8E52",
".X c #DD8F52",
"XX c #DE8E52",
"oX c #DE8F52",
"OX c #DF8F52",
"+X c #DF9052",
"@X c #E09053",
"#X c #C0A945",
"$X c #C5AD47",
"%X c #C4AE46",
"&X c #C9B748",
"*X c #CFBB4A",
"=X c #D3C04B",
"-X c #D6C24C",
";X c #EFDA54",
":X c #F6E056",
/* pixels */
"                                                                                                ",
"                                                                                                ",
"                                                                                                ",
"                                                                                                ",
"                                                                                                ",
"                                                                                                ",
"                                                                                                ",
"                                                                                                ",
"                                                                                                ",
"                                                                                                ",
"                                                                                                ",
"                                                        i V c :                                 ",
"                                                    m -.U.[.).V.K                               ",
"                                                  p K.+X[.A.a.E._.S                             ",
"                                                  ! @XV.D : - g 8.A.r                           ",
"                                                  l U 2         l U.{                           ",
"                                                                  ` f.6                         ",
"                                                                  a f.n                         ",
"                                        9                           >.Z                         ",
"                      : g               ] :                         =.P                         ",
"                      M V.c           S K.r             % h K ( / X.~.o.                        ",
"                      H  XV.s       O >.[.V         4 U 5.~. X X X X}.~.H                       ",
"                    a ^ ~. X,.9 X $ U H.~._       l 8. X X[.[.[.[.[.[. XK.g                     ",
"                    *XB.F U.[.f.,.,.D [ z.X.    N U. X[.[.[.[.[.[.[.[.[. XW                     ",
"                    -X&XG %.[. X_.*.# x.;Xl.e n K. X[.[.[.[.[.[. X`. X`. X`                     ",
"                  4 h.=Xg.n...5.5.$XC k.:Xz.<.I. X[.[.[.[.[.[.[.`. X`. X X{                     ",
"                  +.a.c.$X#XI +.w.M.j.m.#X8. X X[.[.[.[.[.[.[.[. X`.[.[. Xp.l                   ",
"                  c F.U.b.b.E. X[.w.c.o.p.[.[.[.[.[.[.[.[.[.[.~.K. X[. X}. Xp.=                 ",
"                    i @.U. X X[.[. X X[. X[.[.[.[.[.[.[.[.[. X~.X.H. XOX+X XA.9                 ",
"                        p K ~ p. X[.[.[.[.[.[.[.[.[.[.[.+X`.p.5.f...>.o._ ,.@.                  ",
"                            r V.[.[.[.[.[.[.[.[.[.[.[. XV.! 4 9 K.~.#.%   9 0                   ",
"                              U [. X[.[.[.U.8.[.[.[. X=.q     @ 8. XU                           ",
"                                U A. X X[.~...E.[.`.A.-       m 8...$                           ",
"                                  : P V.~.`.o.A. X+X{       O % =                               ",
"                                      - k g U `. X5.y                                           ",
"                                          . ( #.U =                                             ",
"                                            : @                                                 ",
"                                                                                                ",
"                                                                                                ",
"                                                                                                ",
"                                                                                                ",
"                                                                                                ",
"                                                                                                ",
"                                                                                                ",
"                                                                                                ",
"                                                                                                ",
"                                                                                                ",
"                                                                                                "
};
