/* XPM */
static char *coin1700560412[] = {
/* columns rows colors chars-per-pixel */
"48 48 197 2 ",
"   c None",
".  c #0F0C0C",
"X  c #221E16",
"o  c #241F16",
"O  c #292419",
"+  c #2C271A",
"@  c #2D271B",
"#  c #2E271A",
"$  c #302A1C",
"%  c #312B1D",
"&  c #342E1E",
"*  c #392D1B",
"=  c #382E1D",
"-  c #393120",
";  c #3B3321",
":  c #3E3623",
">  c #3F3723",
",  c #3F3724",
"<  c #423621",
"1  c #443720",
"2  c #423823",
"3  c #443B26",
"4  c #463D27",
"5  c #473E27",
"6  c #483F28",
"7  c #484028",
"8  c #4A4129",
"9  c #51472C",
"0  c #554B2E",
"q  c #564B2F",
"w  c #574D2F",
"e  c #5B5031",
"r  c #5C5132",
"t  c #5F5433",
"y  c #615634",
"u  c #645835",
"i  c #645836",
"p  c #695D38",
"a  c #735C30",
"s  c #6D603A",
"d  c #6F623B",
"f  c #71643C",
"g  c #74663D",
"h  c #7E7043",
"j  c #7F7043",
"k  c #816736",
"l  c #91743C",
"z  c #9A7B3E",
"x  c #807043",
"c  c #807143",
"v  c #847445",
"b  c #847545",
"n  c #897948",
"m  c #8C7C49",
"M  c #8E7D4A",
"N  c #8F7F4B",
"B  c #9A8850",
"V  c #9C8951",
"C  c #9D8B52",
"Z  c #A28344",
"A  c #A98C4A",
"S  c #AA8E4D",
"D  c #AB8E4D",
"F  c #A98E4E",
"G  c #AD914E",
"H  c #AE924F",
"J  c #B3924C",
"K  c #B0934F",
"L  c #B2944F",
"P  c #B7954D",
"I  c #BB964B",
"U  c #B8964E",
"Y  c #BD984D",
"T  c #A28E52",
"R  c #A28F54",
"E  c #A39055",
"W  c #AC9251",
"Q  c #AF9553",
"!  c #A89557",
"~  c #AF9654",
"^  c #A99558",
"/  c #AB9759",
"(  c #AF9B5A",
")  c #B09551",
"_  c #B49753",
"`  c #B39854",
"'  c #B29956",
"]  c #B49954",
"[  c #B69A54",
"{  c #B89A54",
"}  c #B89C56",
"|  c #BD9E54",
" . c #B09C5B",
".. c #B29D5A",
"X. c #B5A05D",
"o. c #B8A05B",
"O. c #B9A15B",
"+. c #BAA15A",
"@. c #BBA25A",
"#. c #B9A15C",
"$. c #BDA55F",
"%. c #BFA65E",
"&. c #BEA65F",
"*. c #B9A460",
"=. c #BAA560",
"-. c #BDA761",
";. c #BFA760",
":. c #BFA962",
">. c #C69E4F",
",. c #C79F4F",
"<. c #C09C50",
"1. c #C5A457",
"2. c #CBA251",
"3. c #CFA552",
"4. c #D0A652",
"5. c #D0A753",
"6. c #D6AA54",
"7. c #D8AC55",
"8. c #DAAE55",
"9. c #DBAF56",
"0. c #DDB056",
"q. c #DEB057",
"w. c #DEB157",
"e. c #DFB257",
"r. c #E0B257",
"t. c #E1B358",
"y. c #E3B559",
"u. c #E3B75B",
"i. c #E4B559",
"p. c #E4B659",
"a. c #E5B659",
"s. c #E4B65A",
"d. c #E5B75A",
"f. c #C0AA63",
"g. c #C1AB64",
"h. c #C2AC64",
"j. c #C6B066",
"k. c #C8B065",
"l. c #CBB164",
"z. c #CAB267",
"x. c #CCB467",
"c. c #C9B268",
"v. c #CAB368",
"b. c #CCB569",
"n. c #CDB569",
"m. c #CFB86B",
"M. c #D3B565",
"N. c #DCBB66",
"B. c #D0B769",
"V. c #D1B96C",
"C. c #D2BA6C",
"Z. c #D3BB6C",
"A. c #D6BD6D",
"S. c #D6BE6E",
"D. c #D7BE6E",
"F. c #D8BF6F",
"G. c #E2B960",
"H. c #D9C170",
"J. c #DAC170",
"K. c #DCC371",
"L. c #DDC471",
"P. c #DFC572",
"I. c #E8C469",
"U. c #E0C773",
"Y. c #E1C874",
"T. c #E4CA75",
"R. c #E4CB75",
"E. c #E5CB76",
"W. c #E6CC76",
"Q. c #E7CD77",
"!. c #E8CE77",
"~. c #E9CE77",
"^. c #E9CF78",
"/. c #EACF78",
"(. c #EAD078",
"). c #EBD078",
"_. c #EBD079",
"`. c #EBD179",
"'. c #ECD178",
"]. c #ECD179",
"[. c #EDD179",
"{. c #ECD279",
"}. c #EDD27A",
"|. c #EED37A",
" X c #EFD37A",
".X c #EFD47A",
"XX c #EED47B",
"oX c #EFD47B",
"OX c #F0D47A",
"+X c #F0D47B",
"@X c #F0D57B",
"#X c #F1D57B",
"$X c #F1D67C",
"%X c #F2D67C",
"&X c #F2D77C",
"*X c #F3D77C",
"=X c #F3D87D",
/* pixels */
"                                                                                                ",
"                                                                                                ",
"                                                                                                ",
"                                                                                                ",
"                                                                                                ",
"                                                                                                ",
"                                                                                                ",
"                                                                                                ",
"                                                                                                ",
"                                              $                                                 ",
"                                            y v                                                 ",
"                                            R v.,                                               ",
"                                          0 L.L.8                                               ",
"                                          V =XX.=                                               ",
"                                        > C.&XT *                                               ",
"                                        < ..&Xz.2 .                                             ",
"                                        a F Q.|.f.n 6                                           ",
"                                        z U J.XX#X#Xm                                           ",
"                                      1 ,.<.D.oX|.XXj.>                                         ",
"                                      l s.U J.oX|.|.(.g                                         ",
"                                  # k q.q.H E.|.|.|.&X .                                        ",
"                                  x ' u.1.x.oX|.|.XXXXL.w                                       ",
"                                  v.|.|.^.|.|.|.#XE.|.#XB                                       ",
"                                v (.|.|.|.|.|.oXD.H N.XXD.5                                     ",
"                                $.#X|.|.|.|.|.(._ 6.s.I.#Xm                                     ",
"                              f T.|.|.|.|.|.#XC.P s.y.u.@.f.8                                   ",
"                              ! n.M.'.|.|.|.|.%.3.p.y.p.Z :.B                                   ",
"                            4 n._ 5.z.|.|.|.|.} 0.y.y.s.2.X.m.2                                 ",
"                            9 C.J 0.[ (.|.|.~.{ t.y.y.y.8.W (.h                                 ",
"                            , h.H 0.| (.|.|.(._ 0.y.y.y.8._ oX=.#                               ",
"                              V ' I @.XX|.|.|._ 8.y.y.y.3.@.oXQ.t                               ",
"                              y D.%.E.XX|.|.#Xf.<.s.y.y.J C.XX&X/ o                             ",
"                              % -.&X|.|.|.|.|.K.A 0.r.Y #.|.|.|.Y.e                             ",
"                                s ~.XX|.|.|.|.#Xz.F F %.^.|.|.|.#Xh                             ",
"                                + R XX|.|.|.|.|.|.E.E.|.|.|.|.&Xv.3                             ",
"                                  ; ..#X|.|.|.|.|.|.|.|.|.|.&Xm.0                               ",
"                                    ; ! XX#XXXXX|.|.|.|.&X~.! 4                                 ",
"                                      & n n.Q.#X#X|.~.F./ p +                                   ",
"                                          > i x j s r 5 X                                       ",
"                                                                                                ",
"                                                                                                ",
"                                                                                                ",
"                                                                                                ",
"                                                                                                ",
"                                                                                                ",
"                                                                                                ",
"                                                                                                ",
"                                                                                                "
};
