/* XPM */
static char *exit1700560412[] = {
/* columns rows colors chars-per-pixel */
"48 48 179 2 ",
"   c None",
".  c #0E0A0A",
"X  c #0E0B0B",
"o  c #0F0C0C",
"O  c #0F0D0D",
"+  c #100D0D",
"@  c #100E0E",
"#  c #110E0E",
"$  c #110F0F",
"%  c #121010",
"&  c #131111",
"*  c #141212",
"=  c #151212",
"-  c #151313",
";  c #151414",
":  c #171414",
">  c #161515",
",  c #171616",
"<  c #191616",
"1  c #1A1717",
"2  c #191818",
"3  c #1A1818",
"4  c #1B1818",
"5  c #1B1919",
"6  c #1B1A1A",
"7  c #1C1A1A",
"8  c #1D1B1B",
"9  c gray11",
"0  c #1C1D1D",
"q  c #1D1D1D",
"w  c #1E1C1C",
"e  c #1F1D1D",
"r  c #1D1E1E",
"t  c #1D1F1F",
"y  c #1E1E1E",
"u  c #1F1E1E",
"i  c #1E1F1F",
"p  c #201D1D",
"a  c #201E1E",
"s  c #211F1F",
"d  c #1E2020",
"f  c #1F2020",
"g  c #1F2121",
"h  c #212020",
"j  c #202121",
"k  c gray13",
"l  c #222020",
"z  c #232121",
"x  c #202222",
"c  c #212222",
"v  c #212323",
"b  c #232222",
"n  c #222323",
"m  c #232323",
"M  c #242222",
"N  c #252323",
"B  c #262424",
"V  c #262525",
"C  c #272525",
"Z  c #272626",
"A  c #282626",
"S  c #282727",
"D  c #292727",
"F  c #282828",
"G  c #292828",
"H  c gray16",
"J  c #2A2929",
"K  c #2B2929",
"L  c #2A2A2A",
"P  c #2B2A2A",
"I  c #2C2A2A",
"U  c #2C2B2B",
"Y  c #2D2B2B",
"T  c #2C2C2C",
"R  c #2D2D2D",
"E  c #2E2D2D",
"W  c gray18",
"Q  c #2F2E2E",
"!  c #2F2F2F",
"~  c #302F2F",
"^  c gray19",
"/  c #313030",
"(  c #313131",
")  c #323030",
"_  c #323131",
"`  c #323232",
"'  c #333232",
"]  c #343333",
"[  c #343434",
"{  c #363535",
"}  c #353636",
"|  c #373636",
" . c #363737",
".. c #373737",
"X. c #393838",
"o. c #383939",
"O. c #393939",
"+. c #3A3939",
"@. c #393A3A",
"#. c #3A3A3A",
"$. c #3B3A3A",
"%. c gray23",
"&. c #3C3B3B",
"*. c #3C3C3C",
"=. c #3D3C3C",
"-. c #3C3D3D",
";. c gray24",
":. c #3E3D3D",
">. c #3D3E3E",
",. c #3E3E3E",
"<. c #3F3E3E",
"1. c #3E3F3F",
"2. c #3F3F3F",
"3. c #403F3F",
"4. c #3F4040",
"5. c gray25",
"6. c #404141",
"7. c #414141",
"8. c #424141",
"9. c #414242",
"0. c gray26",
"q. c #434242",
"w. c #424343",
"e. c #434343",
"r. c #444343",
"t. c #434444",
"y. c #444444",
"u. c #444545",
"i. c gray27",
"p. c #464545",
"a. c #454646",
"s. c #464646",
"d. c #474646",
"f. c #464747",
"g. c gray28",
"h. c #474848",
"j. c #484848",
"k. c #484949",
"l. c #494949",
"z. c #494A4A",
"x. c gray29",
"c. c #4A4B4B",
"v. c #4B4B4B",
"b. c #4A4C4C",
"n. c #4B4C4C",
"m. c #4C4C4C",
"M. c #4C4D4D",
"N. c gray30",
"B. c #4D4E4E",
"V. c #4E4E4E",
"C. c #4E4F4F",
"Z. c gray31",
"A. c #4F5050",
"S. c #505050",
"D. c #505151",
"F. c #515151",
"G. c #515252",
"H. c gray32",
"J. c #525353",
"K. c #535454",
"L. c #545555",
"P. c #555555",
"I. c #545656",
"U. c #555656",
"Y. c #555757",
"T. c #565656",
"R. c #565757",
"E. c gray34",
"W. c #575858",
"Q. c #585959",
"!. c gray35",
"~. c #595A5A",
"^. c #5A5B5B",
"/. c #5B5B5B",
"(. c #5B5C5C",
"). c #5C5D5D",
"_. c #5D5E5E",
"`. c #5D5F5F",
"'. c #5E5F5F",
/* pixels */
"                                                                                                ",
"                                                                                                ",
"                                                                                                ",
"                                                                                                ",
"                                                                                                ",
"                                  u P { w.w.i.3.{ P                                             ",
"                              A ,.Z.~.'.'.'.'.'.'.~.j.A                                         ",
"                          u 3.Y.'.'.'.'.'.'.~.'.'.'.'.Y.( -                                     ",
"                        C Z.W.w.Z.'.'.(.'.(.(.'.(.'.'.'.Y.( -                                   ",
"                      C A.'.Y.w.D.(.'.'.'.'.'.'.(.'.'.(.'.A.P                                   ",
"                    z Z.'.'.'.(.'.'.(.'.(.'.'.(.'.'.'.'.'.'.i.4                                 ",
"                  4 j.'.(.'.'.(.(.'.'.'.(.'.'.(.'.(.(.'.(.(.Y.!                                 ",
"                  { (.'.'.(.'.'.'.'.'.(.(.'.'.'.'.'.A.,.w.i.t.%.4                               ",
"                u D.'.'.'.'.(.'.'.(.'.'.'.'.(.'.(.'.Y.n.j.j.h.h.A                               ",
"                { '.'.(.(.(.'.'.(.'.(.'.'.(.'.(.'.'.'.'.'.'.'.'.Y.i.A                           ",
"              7 j.'.'.'.'.'.'.(.'.'.(.'.'.(.'.'.'.(.(.'.'.(.'.'.'.'.Y.(                         ",
"              P Y.'.'.(.'.(.(.'.'.'.(.'.'.'.(.(.'.'.(.'.'.'.(.'.'.'.'.~.{                       ",
"              o.(.(.'.'.'.'.'.'.(.'.(.'.(.'.'.'.'.(.'.'.(.'.(.'.(.'.(.'.~.]                     ",
"            4 t.(.'.(.'.(.'.'.(.'.(.'.'.(.'.'.'.'.'.(.(.'.(.'.'.(.'.'.'.'.Z.z                   ",
"            N j.'.'.'.'.(.'.'.(.'.'.'.(.'.'.(.(.(.'.'.'.'.'.'.(.'.'.(.~.n.t.!                   ",
"            P n.(.(.'.'.(.'.'.'.(.'.'.(.'.'.'.'.(.'.'.'.(.'.'.(.'.'.(.(.A.o.} u                 ",
"            P n.'.'.'.(.'.'.(.'.(.'.'.(.'.(.(.'.'.'.'.'.'.'.'.'.(.'.'.'.'.Z.-.z                 ",
"            ! n.'.'.~.~.'.(.'.'.'.'.'.'.'.'.'.'.(.K.n.i.w.w.j.~.'.'.'.'.(.'.(.4.u               ",
"            ^ n.~.Z.,.D.'.'.(.(.'.(.(.'.'.~.Z.%.P z u u 9 9 u P A.'.(.(.'.'.(.(.,.4             ",
"            ! i.i.{ ,.(.'.(.'.'.'.'.'.'.S.! - > 9 g z g v v v g T W.(.'.'.(.'.'.Y.(             ",
"            P 4.,.%.Z.'.'.'.(.'.'.'.'.j.4 X + + O * 1 g v v v g g -.'.(.'.'.(.'.'.j.N           ",
"            z -.X.w.'.'.(.(.'.'.~.'.Z.1 X + + X O O X $ > d v v g z n.'.(.(.'.'.'.D.]           ",
"              C ( Z.'.~.'.'.'.(.'.~.N X + X X + O O O X O * 4 g z g ^ '.'.'.'.(.'.'.w.7         ",
"            1 ,./.'.'.'.~.'.'.~.'.3.$ X + X + X + X + X O O X > 9 g v n.'.'.(.'.(.'.j.z         ",
"            %.'.~.'.'.'.'.'.'.'.E.p X X X + X + X + X + O X O X * u g v Z.'.'.'.'.'.K.C         ",
"          C Y.'.'.'.'.'.'.'.'.'.r.$ + X + X + X + X + X X $ X O O O 9 g ! (.'.(.'.'.W.P         ",
"          &.'.'.'.~.'.'.~.'.'.Y.p X X + X + X + X + X + X X O X O O $ 9 z D.'.'.(.(.~.!         ",
"        4 h.'.'.'.(.'.'.(.(.'.,.X + X + X + X + X + X + + X + X + X + $ u i.'.'.'.(.'.~         ",
"        p w.K.'.'.'.(.'.'.'.(.P X + + X + X + X + X + X X + X + X + + + - &.'.'.'.'.~.!         ",
"        z 4.w.D.(.(.'.'.(.'.~.z X X + X X + X + X + X + + X + X X + X + X X.'.'.(.'.Y.P         ",
"        g ,.4.4.K.'.'.(.'.'.(.N X + X + + X + X + X + X X + X + + X + X X 3.'.'.'.'.Z.          ",
"        4 o.4.4.h.(.'.(.'.'.(.( + + X X + X X $ X + + X + X + X X X + + 7 S.'./.'.'.3.          ",
"          %.j.Z.W.(.'.'.(.'.'.D.7 + X + X + X X + X + + X X X + $ = B 3.H.'.'.'.'.~.Y           ",
"        p K.'.'.'.'.(.'.'.'.'.'.D.~ 1 - $ $ X O + $ $ - 1 p A ] 3.D./.'.'.'.'.'.~.w.            ",
"          i.'.'.(.'.'.'.(.(.'.'.'.'.Y.S.v.i.3.w.r.i.v.S.H.~.'.'.'.'.'.'.'.'.~.v.(               ",
"          z i.~.'.'.'.'.'.'.'.'.'.'.'.'.'.'.'.'.'.'.'.'.'.'.'.'.'.'.'.Y.j.&.Y                   ",
"              Y %.i.D.Y.~.~./.'.'.'.'.'.'.'.'.'.'.'.'.~.~.W.D.j.3.X.! C                         ",
"                    7 N A ! ( X.%.,.&.,.,.,.,.%.X.{ ( Y A N 7                                   ",
"                                                                                                ",
"                                                                                                ",
"                                                                                                ",
"                                                                                                ",
"                                                                                                "
};
