/* XPM */
static char *p_L_31700560413[] = {
/* columns rows colors chars-per-pixel */
"48 48 94 2 ",
"   c None",
".  c #0D0909",
"X  c #0E0B0B",
"o  c #121111",
"O  c #161617",
"+  c #171718",
"@  c #19191B",
"#  c #1B1B1D",
"$  c #1E2023",
"%  c #1F2124",
"&  c #202225",
"*  c #222326",
"=  c #222327",
"-  c #222427",
";  c #232529",
":  c #232629",
">  c #292C30",
",  c #2A2D31",
"<  c #2A2D32",
"1  c #2A2E32",
"2  c #2B2E33",
"3  c #2D3035",
"4  c #303439",
"5  c #30353A",
"6  c #31353A",
"7  c #33383E",
"8  c #34393F",
"9  c #353A40",
"0  c #353A41",
"q  c #363B41",
"w  c #363C42",
"e  c #373D43",
"r  c #373D44",
"t  c #393F46",
"y  c #3A4047",
"u  c #3A4148",
"i  c #3D434B",
"p  c #3D444B",
"a  c #3E454D",
"s  c #3F464D",
"d  c #3F474F",
"f  c #404850",
"g  c #414851",
"h  c #414951",
"j  c #434B54",
"k  c #444C55",
"l  c #454D56",
"z  c #454E57",
"x  c #464E57",
"c  c #464F58",
"v  c #48515A",
"b  c #48515B",
"n  c #48525B",
"m  c #49525B",
"M  c #49525C",
"N  c #49535D",
"B  c #4A535D",
"V  c #4A545E",
"C  c #4B555F",
"Z  c #4C555F",
"A  c #4C5660",
"S  c #4E5862",
"D  c #4F5A64",
"F  c #515C67",
"G  c #525C67",
"H  c #525D68",
"J  c #535E68",
"K  c #535E69",
"L  c #545F6A",
"P  c #55606C",
"I  c #56616C",
"U  c #56616D",
"Y  c #56626D",
"T  c #58636F",
"R  c #586470",
"E  c #5A6672",
"W  c #5A6773",
"Q  c #5B6773",
"!  c #5B6874",
"~  c #5C6874",
"^  c #5C6975",
"/  c #5D6976",
"(  c #5D6A77",
")  c #5E6A77",
"_  c #5E6B78",
"`  c #5F6B78",
"'  c #5F6C78",
"]  c #5F6C79",
"[  c #606D7A",
"{  c #606D7B",
"}  c #616E7B",
"|  c #616E7C",
" . c #616F7C",
".. c #626F7D",
/* pixels */
"                                                                                                ",
"                                                                                                ",
"                                                                                                ",
"                                                                                                ",
"                                                                                                ",
"                                                                                                ",
"                                                                                                ",
"                                                                                                ",
"                                                                                                ",
"                                                                                                ",
"                                                                                                ",
"                                                                                                ",
"                                                                                                ",
"                                                                                                ",
"                                                                                                ",
"                                                                                                ",
"                                              $ i 7                                             ",
"                                          6 i 1 ) L ;                                           ",
"                                          S Q l Y n d r 1                                       ",
"                                    . . ; I ) T n S V D j 9                                     ",
"                                    O - 6 c Z l L n ) { Q A 1                                   ",
"                                1 e h Q ) { G I { G S { ' _ 8                                   ",
"                                u n Q { { Q * e { ) B ' { Q 1                                   ",
"                                r ) { { { [ n G { ) G { { h                                     ",
"                                % A  .' { { { [ { Q P V 4 O                                     ",
"                                  * l ) { ! Z L } ' G l s t                                     ",
"                                      3 8 s L _ { ' ' }  .' r                                   ",
"                                          8 _ { { ) n Q { { n o                                 ",
"                                            h _  . .L Y { { f                                   ",
"                                            # t G ~  . .{ n *                                   ",
"                                                # 9 n l 7 @                                     ",
"                                                                                                ",
"                                                                                                ",
"                                                                                                ",
"                                                                                                ",
"                                                                                                ",
"                                                                                                ",
"                                                                                                ",
"                                                                                                ",
"                                                                                                ",
"                                                                                                ",
"                                                                                                ",
"                                                                                                ",
"                                                                                                ",
"                                                                                                ",
"                                                                                                ",
"                                                                                                ",
"                                                                                                "
};
