/* XPM */
static char *p_L_41700560413[] = {
/* columns rows colors chars-per-pixel */
"48 48 91 1 ",
"  c None",
". c #0E0B0B",
"X c #1F2023",
"o c #202124",
"O c #202225",
"+ c #212225",
"@ c #222427",
"# c #25272A",
"$ c #26292C",
"% c #26292D",
"& c #282B2F",
"* c #2A2D32",
"= c #2A2E32",
"- c #2C2F34",
"; c #2C3035",
": c #2E3237",
"> c #30353A",
", c #31353B",
"< c #32373D",
"1 c #33383E",
"2 c #34383E",
"3 c #34393F",
"4 c #353B41",
"5 c #363C43",
"6 c #383E44",
"7 c #393F45",
"8 c #393F46",
"9 c #3B4249",
"0 c #3F474E",
"q c #404850",
"w c #424A52",
"e c #424A53",
"r c #424B53",
"t c #434B53",
"y c #454D56",
"u c #454E57",
"i c #464F58",
"p c #474F58",
"a c #475059",
"s c #47505A",
"d c #48515A",
"f c #48525B",
"g c #49525C",
"h c #49535C",
"j c #4A545D",
"k c #4B545E",
"l c #4B555F",
"z c #4C5660",
"x c #4D5761",
"c c #4E5863",
"v c #4F5863",
"b c #4E5963",
"n c #4F5A64",
"m c #505A64",
"M c #505A65",
"N c #515B66",
"B c #525C67",
"V c #525D68",
"C c #535E69",
"Z c #535F6A",
"A c #545F6A",
"S c #545F6B",
"D c #55616C",
"F c #56616D",
"G c #56626D",
"H c #57626E",
"J c #57636F",
"K c #58636F",
"L c #58646F",
"P c #586470",
"I c #596571",
"U c #5A6672",
"Y c #5B6773",
"T c #5B6874",
"R c #5C6875",
"E c #5D6976",
"W c #5D6A76",
"Q c #5D6A77",
"! c #5E6A77",
"~ c #5E6B77",
"^ c #5E6B78",
"/ c #5F6B78",
"( c #5F6C79",
") c #606D79",
"_ c #606D7A",
"` c #606D7B",
"' c #606E7B",
"] c #616E7B",
"[ c #616E7C",
"{ c #616F7C",
"} c #626F7C",
/* pixels */
"                                                ",
"                                                ",
"                                                ",
"                                                ",
"                                                ",
"                                                ",
"                                                ",
"                                                ",
"                                                ",
"                                                ",
"                                                ",
"                                                ",
"                                                ",
"                                                ",
"                                                ",
"                                                ",
"                       $f5                      ",
"                     :s,!z$                     ",
"                    @B_Lcwuw4                   ",
"                  . ,LIcisBDf9                  ",
"                  @10lllPs(}Hm*                 ",
"                ,8l(_!uH{vB__I$                 ",
"               Xws!__Dol{Hv[_u                  ",
"                w!(__~H~(TT[v#                  ",
"                ;D____(!__Hu,X                  ",
"                 *c!_LfI[_IG!D9                 ",
"                   88tI_(_((__I&                ",
"                     2I___cY__!1                ",
"                      <H_!s!__B                 ",
"                       &sDC_!c,                 ",
"                         o:<,                   ",
"                                                ",
"                                                ",
"                                                ",
"                                                ",
"                                                ",
"                                                ",
"                                                ",
"                                                ",
"                                                ",
"                                                ",
"                                                ",
"                                                ",
"                                                ",
"                                                ",
"                                                ",
"                                                ",
"                                                "
};
