/* XPM */
static char *p_L_21700560413[] = {
/* columns rows colors chars-per-pixel */
"48 48 90 1 ",
"  c None",
". c #0E0B0B",
"X c #1F2023",
"o c #202124",
"O c #202225",
"+ c #212225",
"@ c #222427",
"# c #25272A",
"$ c #26292C",
"% c #26292D",
"& c #282B2F",
"* c #2A2D32",
"= c #2A2E32",
"- c #2C2F34",
"; c #2C3035",
": c #2E3237",
"> c #30353A",
", c #31353B",
"< c #32373D",
"1 c #33383E",
"2 c #34393F",
"3 c #353B41",
"4 c #363C43",
"5 c #383E44",
"6 c #393F45",
"7 c #393F46",
"8 c #3B4249",
"9 c #3F474E",
"0 c #404850",
"q c #424A52",
"w c #424A53",
"e c #424B53",
"r c #434B53",
"t c #454D56",
"y c #454E57",
"u c #464F58",
"i c #474F58",
"p c #475059",
"a c #47505A",
"s c #48515A",
"d c #48525B",
"f c #49525C",
"g c #49535C",
"h c #4A545D",
"j c #4B545E",
"k c #4B555F",
"l c #4C5660",
"z c #4D5761",
"x c #4E5863",
"c c #4F5863",
"v c #4E5963",
"b c #4F5A64",
"n c #505A64",
"m c #505A65",
"M c #515B66",
"N c #525C67",
"B c #525D68",
"V c #535E69",
"C c #535F6A",
"Z c #545F6A",
"A c #545F6B",
"S c #55616C",
"D c #56616D",
"F c #56626D",
"G c #57626E",
"H c #57636F",
"J c #58636F",
"K c #58646F",
"L c #586470",
"P c #596571",
"I c #5A6672",
"U c #5B6773",
"Y c #5B6874",
"T c #5C6875",
"R c #5D6976",
"E c #5D6A76",
"W c #5D6A77",
"Q c #5E6A77",
"! c #5E6B77",
"~ c #5E6B78",
"^ c #5F6B78",
"/ c #5F6C79",
"( c #606D79",
") c #606D7A",
"_ c #606D7B",
"` c #606E7B",
"' c #616E7B",
"] c #616E7C",
"[ c #616F7C",
"{ c #626F7C",
/* pixels */
"                                                ",
"                                                ",
"                                                ",
"                                                ",
"                                                ",
"                                                ",
"                                                ",
"                                                ",
"                                                ",
"                                                ",
"                                                ",
"                                                ",
"                                                ",
"                                                ",
"                                                ",
"                                                ",
"                       $d4                      ",
"                     :a,Ql$                     ",
"                    @N)Kxqyq3                   ",
"                  . ,KPxuaNSd8                  ",
"                  @19kkkLa/{Gn*                 ",
"                ,7k/)QyG[cN))P$                 ",
"               oqaQ))Sok[Gc])y                  ",
"                qQ/))!G!/YY]c#                  ",
"                *S))))/Q))Gy,X                  ",
"                 *xQ)KdP])PFQS8                 ",
"                   77rP)/)//))P&                ",
"                     2P)))xU))Q1                ",
"                      <G)QaQ))N                 ",
"                       &aSV)Qx,                 ",
"                         o:<,                   ",
"                                                ",
"                                                ",
"                                                ",
"                                                ",
"                                                ",
"                                                ",
"                                                ",
"                                                ",
"                                                ",
"                                                ",
"                                                ",
"                                                ",
"                                                ",
"                                                ",
"                                                ",
"                                                ",
"                                                "
};
