/* XPM */
static char *p_L_11700560413[] = {
/* columns rows colors chars-per-pixel */
"48 48 92 1 ",
"  c None",
". c #0D0A0A",
"X c #0F0C0C",
"o c #141314",
"O c #18181A",
"+ c #1D1D20",
"@ c #1D1F21",
"# c #212326",
"$ c #242629",
"% c #24262A",
"& c #25282B",
"* c #26292D",
"= c #282B2F",
"- c #292C30",
"; c #292C31",
": c #2A2D32",
"> c #2B2E33",
", c #2B2F34",
"< c #2C3035",
"1 c #2D3035",
"2 c #2D3136",
"3 c #2F3339",
"4 c #30343A",
"5 c #33383E",
"6 c #33393F",
"7 c #363B41",
"8 c #373D43",
"9 c #383E45",
"0 c #3B4148",
"q c #3B4249",
"w c #3C434B",
"e c #3D444C",
"r c #3E454D",
"t c #3F464E",
"y c #40474F",
"u c #404850",
"i c #414850",
"p c #414951",
"a c #424A52",
"s c #424A53",
"d c #434B53",
"f c #434B54",
"g c #464F58",
"h c #475059",
"j c #48515A",
"k c #49525C",
"l c #49535C",
"z c #4A535D",
"x c #4A545E",
"c c #4B545E",
"v c #4B555F",
"b c #4C555F",
"n c #4C5660",
"m c #4D5660",
"M c #4E5863",
"N c #4E5963",
"B c #4F5963",
"V c #4F5964",
"C c #505A65",
"Z c #515B65",
"A c #515C66",
"S c #525C67",
"D c #525D68",
"F c #535E69",
"G c #545F6A",
"H c #545F6B",
"J c #55606B",
"K c #56626D",
"L c #57636E",
"P c #58636F",
"I c #586470",
"U c #596571",
"Y c #5A6673",
"T c #5B6773",
"R c #5C6874",
"E c #5C6875",
"W c #5C6975",
"Q c #5D6976",
"! c #5D6A76",
"~ c #5D6A77",
"^ c #5E6A77",
"/ c #5E6B77",
"( c #5F6B78",
") c #5F6C78",
"_ c #5F6C79",
"` c #606D7A",
"' c #606D7B",
"] c #606E7B",
"[ c #616E7B",
"{ c #616E7C",
"} c #616F7C",
"| c #626F7C",
/* pixels */
"                                                ",
"                                                ",
"                                                ",
"                                                ",
"                                                ",
"                                                ",
"                                                ",
"                                                ",
"                                                ",
"                                                ",
"                                                ",
"                                                ",
"                                                ",
"                                                ",
"                                                ",
"                                                ",
"                     *@9B,                      ",
"                    $CuzQy55                    ",
"                  X y|_Pgbzhu&                  ",
"                  .ouHJhBzPIBy                  ",
"                  -7ucBHJc`_EF#                 ",
"                quF`|JwQ_cP||C                  ",
"               :zn(`|n-I|JS`Qq                  ",
"                h```__Q__YQQrO                  ",
"                2H|```I`}Pldtd-                 ",
"                 ,nQQBbQ__E/|}J*                ",
"                   53j``}_|_``_q                ",
"                     4J`__VY|_}q                ",
"                      :b`Cc(``S                 ",
"                       @8nJSSd2                 ",
"                         @$@@                   ",
"                                                ",
"                                                ",
"                                                ",
"                                                ",
"                                                ",
"                                                ",
"                                                ",
"                                                ",
"                                                ",
"                                                ",
"                                                ",
"                                                ",
"                                                ",
"                                                ",
"                                                ",
"                                                ",
"                                                "
};
