/* XPM */
static char *p_R_21700560413[] = {
/* columns rows colors chars-per-pixel */
"48 48 87 1 ",
"  c None",
". c #0E0B0A",
"X c #1A1B1D",
"o c #1E1F22",
"O c #202225",
"+ c #212225",
"@ c #24272A",
"# c #25282C",
"$ c #26282C",
"% c #26292C",
"& c #2A2D31",
"* c #2A2D32",
"= c #2C3035",
"- c #2D3136",
"; c #2E3237",
": c #2F3338",
"> c #30353B",
", c #31353B",
"< c #32373C",
"1 c #33383D",
"2 c #34393F",
"3 c #353A41",
"4 c #353B41",
"5 c #363C42",
"6 c #373C43",
"7 c #373D43",
"8 c #383E45",
"9 c #3A4047",
"0 c #3B4148",
"q c #3C434A",
"w c #414850",
"e c #424A52",
"r c #424A53",
"t c #434B53",
"y c #444C55",
"u c #454D56",
"i c #454E57",
"p c #464E57",
"a c #474F59",
"s c #475059",
"d c #48515A",
"f c #48515B",
"g c #48525B",
"h c #49525C",
"j c #49535C",
"k c #4A535C",
"l c #4A535D",
"z c #4B545D",
"x c #4B545E",
"c c #4B555F",
"v c #4C555F",
"b c #4C565F",
"n c #4E5862",
"m c #505B65",
"M c #515B65",
"N c #515B66",
"B c #525C67",
"V c #525D68",
"C c #555F6B",
"Z c #54606B",
"A c #55606B",
"S c #56626D",
"D c #57626E",
"F c #57636E",
"G c #57636F",
"H c #58636F",
"J c #58646F",
"K c #596570",
"L c #596571",
"P c #5A6672",
"I c #5A6673",
"U c #5B6773",
"Y c #5B6874",
"T c #5C6874",
"R c #5C6975",
"E c #5D6976",
"W c #5D6A76",
"Q c #5E6A77",
"! c #5E6B78",
"~ c #5F6C78",
"^ c #5F6C79",
"/ c #606C79",
"( c #606D7A",
") c #606D7B",
"_ c #616E7B",
"` c #616F7C",
"' c #626F7C",
/* pixels */
"                                                ",
"                                                ",
"                                                ",
"                                                ",
"                                                ",
"                                                ",
"                                                ",
"                                                ",
"                                                ",
"                                                ",
"                                                ",
"                                                ",
"                                                ",
"                                                ",
"                                                ",
"                                                ",
"                      ,f,                       ",
"                     @p^5e5                     ",
"                   <wptfJ(I&                    ",
"                  5sMAffcHJ9 .                  ",
"                  cA((fFnfce3$                  ",
"                  m`(Fv(UpI((V83                ",
"                  0(`Am`A+c((^cp$               ",
"                   a(WI(/JW((((f                ",
"                  o*eV((W~((((I2                ",
"                 2mWKF((WfA((M,                 ",
"                oF`((!(((Wf59$                  ",
"                &K((Wn!((Wq                     ",
"                 h`((fI`I9                      ",
"                 &hU(FVv-                       ",
"                   :2:+X                        ",
"                                                ",
"                                                ",
"                                                ",
"                                                ",
"                                                ",
"                                                ",
"                                                ",
"                                                ",
"                                                ",
"                                                ",
"                                                ",
"                                                ",
"                                                ",
"                                                ",
"                                                ",
"                                                ",
"                                                "
};
