/* XPM */
static char *p_R_31700560413[] = {
/* columns rows colors chars-per-pixel */
"48 48 94 2 ",
"   c None",
".  c #0C0908",
"X  c #0E0B0B",
"o  c #0F0D0D",
"O  c #161516",
"+  c #19191B",
"@  c #1B1B1D",
"#  c #1C1D1F",
"$  c #1C1D20",
"%  c #1E1F21",
"&  c #202124",
"*  c #212225",
"=  c #222427",
"-  c #25272A",
";  c #25272B",
":  c #26292D",
">  c #272A2E",
",  c #282B2F",
"<  c #292D31",
"1  c #2A2D32",
"2  c #2D3136",
"3  c #2D3237",
"4  c #2E3237",
"5  c #2F3338",
"6  c #303439",
"7  c #32373D",
"8  c #34393F",
"9  c #353A40",
"0  c #363B41",
"q  c #363C42",
"w  c #373C43",
"e  c #393F46",
"r  c #3C424A",
"t  c #3D444C",
"y  c #3E454D",
"u  c #3F464E",
"i  c #40474F",
"p  c #404850",
"a  c #414951",
"s  c #424A52",
"d  c #424A53",
"f  c #434B53",
"g  c #444C55",
"h  c #464E57",
"j  c #475059",
"k  c #48505A",
"l  c #48515A",
"z  c #48515B",
"x  c #49515B",
"c  c #48525B",
"v  c #49535C",
"b  c #4A535D",
"n  c #4A545D",
"m  c #4B555F",
"M  c #4C555F",
"N  c #4C565F",
"B  c #4C5660",
"V  c #4D5761",
"C  c #4E5862",
"Z  c #4F5963",
"A  c #505A64",
"S  c #525D68",
"D  c #535D68",
"F  c #535E69",
"G  c #545F6A",
"H  c #545F6B",
"J  c #54606B",
"K  c #55606C",
"L  c #56616C",
"P  c #57626E",
"I  c #586470",
"U  c #596571",
"Y  c #5A6571",
"T  c #5A6672",
"R  c #5A6673",
"E  c #5A6773",
"W  c #5B6773",
"Q  c #5B6774",
"!  c #5C6875",
"~  c #5D6976",
"^  c #5D6A76",
"/  c #5D6A77",
"(  c #5E6A77",
")  c #5E6B77",
"_  c #5E6B78",
"`  c #5F6C78",
"'  c #5F6C79",
"]  c #606D7A",
"[  c #606D7B",
"{  c #606E7B",
"}  c #616E7B",
"|  c #616E7C",
" . c #616F7C",
".. c #626F7C",
/* pixels */
"                                                                                                ",
"                                                                                                ",
"                                                                                                ",
"                                                                                                ",
"                                                                                                ",
"                                                                                                ",
"                                                                                                ",
"                                                                                                ",
"                                                                                                ",
"                                                                                                ",
"                                                                                                ",
"                                                                                                ",
"                                                                                                ",
"                                                                                                ",
"                                                                                                ",
"                                                                                                ",
"                                            4 u ;                                               ",
"                                          # N | 7 w w                                           ",
"                                      > w t c H c J P ;                                         ",
"                                    6 a B N N n H ! W 4 . X                                     ",
"                                  * v J | ` c J h N j w ; +                                     ",
"                                  < R } } F N } R A ! ` W c 8 6                                 ",
"                                  = H } } B R ..a @ F }  .! n i                                 ",
"                                    e ! } H R } P c ! } } ` } a                                 ",
"                                      < c S R } _ } } _ } } H >                                 ",
"                                    w i f Z ! } R v R } ! N ,                                   ",
"                                  4 W | } ] ! } } J f 8 6 $                                     ",
"                                o r | } ! c R } _ } i                                           ",
"                                  8 } } R S } } } c *                                           ",
"                                  @ a ! } } ! S i $                                             ",
"                                    O 4 h c u $                                                 ",
"                                                                                                ",
"                                                                                                ",
"                                                                                                ",
"                                                                                                ",
"                                                                                                ",
"                                                                                                ",
"                                                                                                ",
"                                                                                                ",
"                                                                                                ",
"                                                                                                ",
"                                                                                                ",
"                                                                                                ",
"                                                                                                ",
"                                                                                                ",
"                                                                                                ",
"                                                                                                ",
"                                                                                                "
};
