/* XPM */
static char *p_R_11700560413[] = {
/* columns rows colors chars-per-pixel */
"48 48 91 1 ",
"  c None",
". c #0D0909",
"X c #1B1C1E",
"o c #1D1E20",
"O c #1E1F22",
"+ c #202124",
"@ c #212326",
"# c #222427",
"$ c #232629",
"% c #24262A",
"& c #25282C",
"* c #282C30",
"= c #2B2E33",
"- c #2C2F34",
"; c #2E3238",
": c #30353A",
"> c #31353B",
", c #31363C",
"< c #32373C",
"1 c #32373D",
"2 c #33383E",
"3 c #34393F",
"4 c #353A40",
"5 c #353B41",
"6 c #373C43",
"7 c #373D44",
"8 c #383D44",
"9 c #393F46",
"0 c #3A4047",
"q c #3C424A",
"w c #3F464E",
"e c #40474F",
"r c #404850",
"t c #414850",
"y c #414851",
"u c #414951",
"i c #424951",
"p c #434B54",
"a c #464F58",
"s c #475059",
"d c #48515A",
"f c #48525B",
"g c #49525B",
"h c #49525C",
"j c #4A535D",
"k c #4A545E",
"l c #4B545E",
"z c #4B555E",
"x c #4B555F",
"c c #4C5660",
"v c #4D5660",
"b c #4D5761",
"n c #4E5762",
"m c #4E5862",
"M c #4E5863",
"N c #4F5963",
"B c #4F5964",
"V c #4F5A64",
"C c #505B65",
"Z c #515B66",
"A c #525D67",
"S c #525D68",
"D c #535E69",
"F c #545F6A",
"G c #55606B",
"H c #55606C",
"J c #57626E",
"K c #57636F",
"L c #586470",
"P c #596571",
"I c #5A6672",
"U c #5B6773",
"Y c #5B6774",
"T c #5B6874",
"R c #5C6975",
"E c #5D6976",
"W c #5D6A77",
"Q c #5E6A77",
"! c #5E6B77",
"~ c #5E6B78",
"^ c #5F6B78",
"/ c #5F6C78",
"( c #5F6C79",
") c #606C79",
"_ c #606D7A",
"` c #606E7B",
"' c #616E7B",
"] c #616E7C",
"[ c #616F7C",
"{ c #626F7C",
"} c #62707D",
/* pixels */
"                                                ",
"                                                ",
"                                                ",
"                                                ",
"                                                ",
"                                                ",
"                                                ",
"                                                ",
"                                                ",
"                                                ",
"                                                ",
"                                                ",
"                                                ",
"                                                ",
"                                                ",
"                                                ",
"                      &xiX*                     ",
"                    >30PA0D-                    ",
"                   wagxaF)_g                    ",
"                  7bKPxMaFGgo.                  ",
"                  jR__VVKVbp8=o                 ",
"                  g[_Rg(^ib[_Piw                ",
"                  1Y_KM_R;i___Mk1               ",
"                   5P^P__^(____V$               ",
"                 %wiigF_^P___[P5                ",
"                ob_[^U)__MbPRC1                 ",
"                1^__(_____C>3                   ",
"                4R__RVR__P6                     ",
"                 c([_Mk_A>                      ",
"                  eMDJCq@                       ",
"                    o#@                         ",
"                                                ",
"                                                ",
"                                                ",
"                                                ",
"                                                ",
"                                                ",
"                                                ",
"                                                ",
"                                                ",
"                                                ",
"                                                ",
"                                                ",
"                                                ",
"                                                ",
"                                                ",
"                                                ",
"                                                "
};
